<svg xmlns="http://www.w3.org/2000/svg" xmlns:xlink="http://www.w3.org/1999/xlink" width="339.328" height="789" viewBox="0 0 339.328 789"><defs><clipPath id="a"><rect width="339.328" height="18" fill="none"/></clipPath><clipPath id="b"><rect width="54" height="18" fill="none"/></clipPath><clipPath id="c"><rect width="134" height="5" fill="none"/></clipPath></defs><g transform="translate(-21 -14)"><g transform="translate(21 14)" clip-path="url(#a)"><g transform="translate(315 3)"><g transform="translate(0 0.333)" fill="none" stroke="#fff" stroke-miterlimit="10" stroke-width="1" opacity="0.35"><rect width="22" height="11.333" rx="2.667" stroke="none"/><rect x="0.5" y="0.5" width="21" height="10.333" rx="2.167" fill="none"/></g><path d="M0,0V4A2.17,2.17,0,0,0,1.328,2,2.17,2.17,0,0,0,0,0" transform="translate(23 4)" fill="#fff" opacity="0.4"/><rect width="18" height="7.333" rx="1.333" transform="translate(2 2.333)" fill="#fff"/></g><path d="M7.637,10.966a.313.313,0,0,1-.221-.093l-2-2.016a.313.313,0,0,1,.01-.456,3.421,3.421,0,0,1,4.419,0,.311.311,0,0,1,.1.226.315.315,0,0,1-.094.23l-2,2.016A.308.308,0,0,1,7.637,10.966Zm3.508-3.538a.312.312,0,0,1-.214-.085,4.9,4.9,0,0,0-6.585,0,.312.312,0,0,1-.214.085.308.308,0,0,1-.22-.091L2.758,6.17a.322.322,0,0,1,0-.459,7.158,7.158,0,0,1,9.752,0,.322.322,0,0,1,.1.229.326.326,0,0,1-.094.23L11.364,7.337A.309.309,0,0,1,11.145,7.428ZM13.8,4.743a.3.3,0,0,1-.214-.087,8.64,8.64,0,0,0-11.907,0,.3.3,0,0,1-.214.087.308.308,0,0,1-.22-.091L.094,3.486a.322.322,0,0,1,0-.456,10.9,10.9,0,0,1,15.08,0,.325.325,0,0,1,.1.228.319.319,0,0,1-.094.229L14.023,4.652A.307.307,0,0,1,13.8,4.743Z" transform="translate(294.694 3.331)" fill="#fff"/><path d="M16,10.667H15a1,1,0,0,1-1-1V1a1,1,0,0,1,1-1h1a1,1,0,0,1,1,1V9.667A1,1,0,0,1,16,10.667Zm-4.667,0h-1a1,1,0,0,1-1-1V3.334a1,1,0,0,1,1-1h1a1,1,0,0,1,1,1V9.667A1,1,0,0,1,11.334,10.667Zm-4.667,0h-1a1,1,0,0,1-1-1v-4a1,1,0,0,1,1-1h1a1,1,0,0,1,1,1v4A1,1,0,0,1,6.666,10.667ZM2,10.667H1a1,1,0,0,1-1-1v-2a1,1,0,0,1,1-1H2a1,1,0,0,1,1,1v2A1,1,0,0,1,2,10.667Z" transform="translate(272.667 3.667)" fill="#fff"/><g clip-path="url(#b)"><text fill="#fff" font-size="15" font-family="Helvetica" letter-spacing="-0.02em"><tspan x="12.853" y="12">9:41</tspan></text></g></g><g transform="translate(121 798)" clip-path="url(#c)"><rect width="134" height="5" rx="2.5" fill="#fff"/></g></g></svg>